<?xml version="1.0" encoding="UTF-8"?>
<svg version="1.1" xmlns="http://www.w3.org/2000/svg" width="500" height="500">
<path d="M0 0 C9.06852041 6.60386402 14.5040466 14.51080857 20.00390625 24.1875 C20.66902646 25.35040022 21.33439209 26.51316011 22 27.67578125 C23.00250533 29.43028765 24.0029581 31.18582314 24.99755859 32.94482422 C27.8826892 38.03381503 30.93735159 43.00143289 34.046875 47.95703125 C36.02226223 51.2178002 37.87574146 54.52649344 39.71606445 57.86450195 C41.7656563 61.56153824 43.88329153 65.21837246 46.00390625 68.875 C46.47030518 69.68026123 46.9367041 70.48552246 47.41723633 71.31518555 C51.69191668 78.68014907 56.02940919 86.00746868 60.37036133 93.33349609 C63.99068312 99.4508714 67.54458815 105.59994297 71.0546875 111.78125 C73.30010305 115.70510243 75.58426961 119.60479162 77.87890625 123.5 C78.30373291 124.22123047 78.72855957 124.94246094 79.16625977 125.68554688 C81.20693329 129.14701088 83.2516074 132.60606217 85.30078125 136.0625 C90.62244961 145.05478967 95.82921981 154.11010201 101.00390625 163.1875 C105.4464541 170.97982603 109.89024821 178.77035714 114.44140625 186.5 C115.02269287 187.48818726 115.02269287 187.48818726 115.61572266 188.49633789 C117.5367974 191.74836673 119.48584489 194.98059089 121.46875 198.1953125 C131.37614181 214.3074536 135.69133463 229.04576069 132.3203125 248.0390625 C130.29974101 255.06495009 127.1500806 261.18383955 123.00390625 267.1875 C122.48957031 267.93902344 121.97523438 268.69054687 121.4453125 269.46484375 C120.96964844 270.03332031 120.49398438 270.60179687 120.00390625 271.1875 C119.34390625 271.1875 118.68390625 271.1875 118.00390625 271.1875 C117.65199219 272.06921875 117.65199219 272.06921875 117.29296875 272.96875 C112.67358864 280.91968304 100.59766711 285.65120677 92.06640625 287.9375 C76.16050137 291.29193185 58.99165724 289.95255176 45.00390625 281.1875 C31.91770578 272.00350991 24.15997403 260.20069341 16.703125 246.28515625 C14.30903674 241.92076088 11.77246364 237.64535801 9.23901367 233.36083984 C5.46888681 226.98424828 1.73260758 220.58839539 -1.99609375 214.1875 C-9.9296062 200.57702897 -17.92137831 187.00175776 -25.93359375 173.4375 C-26.48990479 172.49567871 -27.04621582 171.55385742 -27.61938477 170.58349609 C-28.14459717 169.69484863 -28.66980957 168.80620117 -29.2109375 167.890625 C-29.90884399 166.70968262 -29.90884399 166.70968262 -30.62084961 165.50488281 C-31.61514165 163.82943101 -32.63492651 162.16901965 -33.67016602 160.51855469 C-34.99609375 158.1875 -34.99609375 158.1875 -34.99609375 156.1875 C-37.85593922 158.70382049 -39.41078197 161.52635553 -41.18359375 164.875 C-41.71339844 165.86886719 -42.24320313 166.86273438 -42.7890625 167.88671875 C-43.18738281 168.64597656 -43.58570313 169.40523437 -43.99609375 170.1875 C-44.65609375 170.1875 -45.31609375 170.1875 -45.99609375 170.1875 C-46.25777344 171.0640625 -46.51945313 171.940625 -46.7890625 172.84375 C-47.98688667 176.16199429 -49.40782786 178.7244217 -51.30859375 181.6875 C-55.0570265 187.6173038 -58.63504341 193.6362044 -62.18359375 199.6875 C-69.58322997 212.25944638 -77.10759831 224.76974503 -85.1171875 236.96484375 C-85.61331543 237.72112061 -86.10944336 238.47739746 -86.62060547 239.2565918 C-87.53879796 240.64915776 -88.46301704 242.03778118 -89.39501953 243.42114258 C-92.09713989 247.50675275 -94.18379518 251.63053185 -96.10522461 256.13525391 C-97.17369438 258.59662877 -98.4153115 260.92113106 -99.74609375 263.25 C-100.38804687 264.38115234 -100.38804687 264.38115234 -101.04296875 265.53515625 C-101.51476562 266.35306641 -101.51476562 266.35306641 -101.99609375 267.1875 C-102.65609375 267.1875 -103.31609375 267.1875 -103.99609375 267.1875 C-104.24875 267.76886719 -104.50140625 268.35023438 -104.76171875 268.94921875 C-110.05598656 278.54926766 -122.22653498 283.62126203 -131.984375 287.3203125 C-147.35738975 291.74678367 -164.57731994 289.68825872 -178.80859375 282.5625 C-192.24982402 274.49776184 -202.01777495 262.40102591 -206.18359375 247.25 C-209.75441075 229.5472208 -204.87134059 213.82549559 -195.5234375 198.82421875 C-194.56926362 197.41289193 -193.6053104 196.00813839 -192.6328125 194.609375 C-190.62388211 191.63673337 -188.77223767 188.57938142 -186.93359375 185.5 C-186.55541504 184.86674805 -186.17723633 184.23349609 -185.78759766 183.58105469 C-183.55545921 179.83149747 -181.33852675 176.07306787 -179.125 172.3125 C-170.94254796 158.41548493 -162.60907693 144.61450718 -154.22070312 130.84130859 C-150.47408909 124.68895876 -146.73504425 118.53200905 -142.99609375 112.375 C-142.63393768 111.77875824 -142.27178162 111.18251648 -141.89865112 110.56820679 C-138.01893066 104.18024721 -134.14455948 97.78935798 -130.30859375 91.375 C-122.20212904 77.83280507 -114.00828509 64.3420483 -105.61572266 50.97509766 C-102.5228759 46.04456436 -99.46909392 41.09103626 -96.43359375 36.125 C-95.9756543 35.37605469 -95.51771484 34.62710938 -95.04589844 33.85546875 C-92.82371915 30.21255188 -90.61771833 26.56114669 -88.44140625 22.890625 C-88.03865479 22.21265869 -87.63590332 21.53469238 -87.22094727 20.83618164 C-86.47312846 19.57442392 -85.72855447 18.31073443 -84.98803711 17.04467773 C-82.90266061 13.524762 -80.73466921 10.23480839 -77.99609375 7.1875 C-77.33609375 7.1875 -76.67609375 7.1875 -75.99609375 7.1875 C-75.99609375 6.5275 -75.99609375 5.8675 -75.99609375 5.1875 C-54.40060552 -13.74052521 -24.04978402 -15.7437816 0 0 Z " fill="#3EA254" transform="translate(282.99609375,111.8125)"/>
<path d="M0 0 C0.99 0.495 0.99 0.495 2 1 C1.071875 1.8353125 1.071875 1.8353125 0.125 2.6875 C-2.08844581 5.09624985 -2.90742142 6.95638823 -4 10 C-4.66 10.99 -5.32 11.98 -6 13 C-7.32 13 -8.64 13 -10 13 C-10.268125 13.804375 -10.53625 14.60875 -10.8125 15.4375 C-11.204375 16.283125 -11.59625 17.12875 -12 18 C-13.485 18.495 -13.485 18.495 -15 19 C-15.13277344 19.68449219 -15.26554687 20.36898437 -15.40234375 21.07421875 C-16.06825343 24.33412954 -16.80956612 27.5716107 -17.5625 30.8125 C-17.83191406 31.97394531 -18.10132813 33.13539063 -18.37890625 34.33203125 C-18.58386719 35.21246094 -18.78882813 36.09289062 -19 37 C-19.66 37 -20.32 37 -21 37 C-20.52127166 52.93009835 -18.53937091 64.75236993 -11 79 C-10.24643425 80.56078343 -9.49591046 82.1230436 -8.75 83.6875 C-7.38438751 87.0502828 -7.38438751 87.0502828 -5 88 C-4.27306096 89.97888961 -3.60183749 91.97954558 -3 94 C-2.34 94 -1.68 94 -1 94 C-0.44054687 95.14597656 0.11890625 96.29195313 0.6953125 97.47265625 C2.91236927 101.90384492 5.34977666 106.17609468 7.875 110.4375 C8.31191162 111.17959717 8.74882324 111.92169434 9.19897461 112.6862793 C11.94831949 117.32443275 14.80066557 121.85192104 17.94140625 126.23828125 C19.0860215 128.14315756 19.5734754 129.82903769 20 132 C20.66 132 21.32 132 22 132 C22.433125 133.051875 22.86625 134.10375 23.3125 135.1875 C24.31565232 137.54729641 25.35943495 139.59905825 26.6875 141.8125 C28 144 28 144 28 146 C28.99 146 29.98 146 31 146 C32.3540932 147.98600337 33.68457624 149.98817543 35 152 C35.81984375 152.59039062 36.6396875 153.18078125 37.484375 153.7890625 C40.60448409 156.53127018 41.25589943 158.65890759 42.375 162.625 C42.71273437 163.77226562 43.05046875 164.91953125 43.3984375 166.1015625 C44 169 44 169 43 171 C36.48063781 161.77448747 36.48063781 161.77448747 35 156 C32.14015453 158.51632049 30.58531178 161.33885553 28.8125 164.6875 C28.28269531 165.68136719 27.75289062 166.67523438 27.20703125 167.69921875 C26.80871094 168.45847656 26.41039062 169.21773437 26 170 C25.34 170 24.68 170 24 170 C23.73832031 170.8765625 23.47664062 171.753125 23.20703125 172.65625 C22.00920708 175.97449429 20.58826589 178.5369217 18.6875 181.5 C14.93906725 187.4298038 11.36105034 193.4487044 7.8125 199.5 C0.41286378 212.07194638 -7.11150456 224.58224503 -15.12109375 236.77734375 C-15.61722168 237.53362061 -16.11334961 238.28989746 -16.62451172 239.0690918 C-17.54270421 240.46165776 -18.46692329 241.85028118 -19.39892578 243.23364258 C-22.10104614 247.31925275 -24.18770143 251.44303185 -26.10913086 255.94775391 C-27.17760063 258.40912877 -28.41921775 260.73363106 -29.75 263.0625 C-30.39195312 264.19365234 -30.39195312 264.19365234 -31.046875 265.34765625 C-31.51867187 266.16556641 -31.51867187 266.16556641 -32 267 C-32.66 267 -33.32 267 -34 267 C-34.25265625 267.58136719 -34.5053125 268.16273438 -34.765625 268.76171875 C-40.05989281 278.36176766 -52.23044123 283.43376203 -61.98828125 287.1328125 C-77.361296 291.55928367 -94.58122619 289.50075872 -108.8125 282.375 C-122.25373027 274.31026184 -132.0216812 262.21352591 -136.1875 247.0625 C-139.758317 229.3597208 -134.87524684 213.63799559 -125.52734375 198.63671875 C-124.57316987 197.22539193 -123.60921665 195.82063839 -122.63671875 194.421875 C-120.62778836 191.44923337 -118.77614392 188.39188142 -116.9375 185.3125 C-116.55932129 184.67924805 -116.18114258 184.04599609 -115.79150391 183.39355469 C-113.55936546 179.64399747 -111.342433 175.88556787 -109.12890625 172.125 C-100.94645421 158.22798493 -92.61298318 144.42700718 -84.22460938 130.65380859 C-80.47799534 124.50145876 -76.7389505 118.34450905 -73 112.1875 C-72.63784393 111.59125824 -72.27568787 110.99501648 -71.90255737 110.38070679 C-68.02283691 103.99274721 -64.14846573 97.60185798 -60.3125 91.1875 C-52.20603529 77.64530507 -44.01219134 64.1545483 -35.61962891 50.78759766 C-32.52678215 45.85706436 -29.47300017 40.90353626 -26.4375 35.9375 C-25.97956055 35.18855469 -25.52162109 34.43960938 -25.04980469 33.66796875 C-22.8276254 30.02505188 -20.62162458 26.37364669 -18.4453125 22.703125 C-18.04256104 22.02515869 -17.63980957 21.34719238 -17.22485352 20.64868164 C-16.47703471 19.38692392 -15.73246072 18.12323443 -14.99194336 16.85717773 C-12.90656686 13.337262 -10.73857546 10.04730839 -8 7 C-7.34 7 -6.68 7 -6 7 C-6 6.34 -6 5.68 -6 5 C-4.04072937 3.2856382 -2.04119788 1.61594832 0 0 Z " fill="#6DB650" transform="translate(213,112)"/>
<path d="M0 0 C0.80695313 0.3815625 1.61390625 0.763125 2.4453125 1.15625 C4.3148437 2.06821644 6.16078643 3.02834 8 4 C8 4.66 8 5.32 8 6 C10.15388245 7.11682794 12.18669975 8.06067742 14.5 8.8125 C17.65195585 10.30967903 19.06443384 12.13249458 21 15 C21 15.66 21 16.32 21 17 C21.66 17 22.32 17 23 17 C27.1004273 21.20293798 28.49203743 24.26974222 30 30 C30.65074672 31.24901387 31.3394191 32.47892193 32.0625 33.6875 C35.08908795 38.86198907 35.15698289 43.14033416 35.125 49.0625 C35.12886719 49.78244141 35.13273437 50.50238281 35.13671875 51.24414062 C35.13080799 54.42708639 35.01350713 56.95947862 34 60 C33.34 60 32.68 60 32 60 C31.82984375 61.14597656 31.6596875 62.29195313 31.484375 63.47265625 C31.24031557 65.00272114 30.99548256 66.53266279 30.75 68.0625 C30.64042969 68.81466797 30.53085938 69.56683594 30.41796875 70.34179688 C29.53977328 75.68030092 27.9275041 79.44543267 25 84 C24.34 84 23.68 84 23 84 C22.74734375 84.58136719 22.4946875 85.16273438 22.234375 85.76171875 C16.94010719 95.36176766 4.76955877 100.43376203 -4.98828125 104.1328125 C-20.361296 108.55928367 -37.58122619 106.50075872 -51.8125 99.375 C-65.25373027 91.31026184 -75.0216812 79.21352591 -79.1875 64.0625 C-82.5782833 47.25226075 -78.37257944 32.58449321 -70 18 C-67.96484375 15.0859375 -67.96484375 15.0859375 -66 13 C-65.01 13 -64.02 13 -63 13 C-63 12.34 -63 11.68 -63 11 C-62.01 11 -61.02 11 -60 11 C-60 10.34 -60 9.68 -60 9 C-59.34 9 -58.68 9 -58 9 C-57.67 8.01 -57.34 7.02 -57 6 C-40.75237512 -3.89120675 -17.5728447 -8.52715087 0 0 Z " fill="#3EA354" transform="translate(156,295)"/>
<path d="M0 0 C0.495 0.99 0.495 0.99 1 2 C0.03466797 4.09692383 0.03466797 4.09692383 -1.5078125 6.70703125 C-2.07588623 7.67568115 -2.64395996 8.64433105 -3.22924805 9.64233398 C-3.85484619 10.68848877 -4.48044434 11.73464355 -5.125 12.8125 C-5.76155518 13.88894775 -6.39811035 14.96539551 -7.05395508 16.07446289 C-14.19367786 28.10060735 -21.43900763 40.07786745 -29.1171875 51.76953125 C-29.61387939 52.52693604 -30.11057129 53.28434082 -30.62231445 54.06469727 C-31.54118951 55.45897607 -32.46619919 56.84924445 -33.39916992 58.23413086 C-36.51052927 62.93821704 -38.84614124 67.79115535 -41 73 C-42 71 -42 71 -41.3984375 68.86328125 C-39.71071088 64.6568481 -38.08319385 60.86078762 -35.3125 57.25 C-32.96570992 53.95180853 -32.2913087 51.98121894 -32 48 C-31.34 48 -30.68 48 -30 48 C-29.773125 47.01 -29.54625 46.02 -29.3125 45 C-28.05810579 40.64965413 -26.12484303 36.32338278 -23 33 C-21.68 33 -20.36 33 -19 33 C-18.72929687 32.27039063 -18.45859375 31.54078125 -18.1796875 30.7890625 C-17.03888437 28.09193193 -15.71019247 25.83081631 -14.125 23.375 C-11.31649213 18.8350334 -9.57725936 14.35424091 -8.0546875 9.25 C-6.76796834 6.50499913 -5.71849386 6.16202287 -3 5 C-1.24677063 2.46811352 -1.24677063 2.46811352 0 0 Z " fill="#CAE7BF" transform="translate(227,297)"/>
<path d="M0 0 C0.53625 0.721875 1.0725 1.44375 1.625 2.1875 C3.87722335 5.11880346 3.87722335 5.11880346 7 7 C11.73574559 10.72352516 12.88101733 17.34334967 14 23 C13.67 23.66 13.34 24.32 13 25 C6.48063781 15.77448747 6.48063781 15.77448747 5 10 C2.14015453 12.51632049 0.58531178 15.33885553 -1.1875 18.6875 C-1.71730469 19.68136719 -2.24710938 20.67523438 -2.79296875 21.69921875 C-3.19128906 22.45847656 -3.58960938 23.21773438 -4 24 C-4.66 24 -5.32 24 -6 24 C-6.20625 24.804375 -6.4125 25.60875 -6.625 26.4375 C-8.4176786 31.08216728 -10.98527072 35.04481582 -14 39 C-14.33 39 -14.66 39 -15 39 C-15 37.02 -15 35.04 -15 33 C-14.34 33 -13.68 33 -13 33 C-12.8453125 31.9171875 -12.8453125 31.9171875 -12.6875 30.8125 C-11.93206053 27.72206579 -10.84468685 25.58256159 -9 23 C-8.34 23 -7.68 23 -7 23 C-7 22.34 -7 21.68 -7 21 C-6.34 20.67 -5.68 20.34 -5 20 C-4.34444881 17.47266765 -4.34444881 17.47266765 -4 15 C-3.34 15 -2.68 15 -2 15 C-1.87882813 14.43410156 -1.75765625 13.86820312 -1.6328125 13.28515625 C-1.46523437 12.55167969 -1.29765625 11.81820313 -1.125 11.0625 C-0.96257812 10.33160156 -0.80015625 9.60070312 -0.6328125 8.84765625 C0 7 0 7 2 6 C1.34 5.01 0.68 4.02 0 3 C0 2.01 0 1.02 0 0 Z " fill="#99C98B" transform="translate(243,258)"/>
<path d="M0 0 C0.33 1.32 0.66 2.64 1 4 C0.01 4.66 -0.98 5.32 -2 6 C-2.41372322 8.06861609 -2.82025524 10.13886892 -3.1953125 12.21484375 C-4.17889213 15.61917519 -5.83003445 18.25961683 -7.625 21.3125 C-12.9118759 30.98898729 -12.86635768 42.70536368 -9.96484375 53.21484375 C-8.43102237 57.68497151 -6.78691152 61.74769159 -4.26953125 65.75390625 C-3.85058594 66.49511719 -3.43164062 67.23632812 -3 68 C-3.495 68.99 -3.495 68.99 -4 70 C-8.2478704 63.5388379 -11.167281 57.5154664 -13 50 C-13.18433594 49.40058594 -13.36867188 48.80117188 -13.55859375 48.18359375 C-16.70500954 32.61858114 -11.67324986 18.36630621 -4 5 C-2.70558582 3.30292974 -1.38426631 1.62461145 0 0 Z " fill="#95C8A0" transform="translate(90,308)"/>
<path d="M0 0 C4.10565215 6.15847822 4.38875192 12.42242963 4.375 19.625 C4.37338867 20.50438232 4.37177734 21.38376465 4.37011719 22.28979492 C4.17914555 32.51707519 1.61762801 41.37292841 -4 50 C-5.60684607 46.78630785 -4.05291059 44.3249808 -3 41 C-2.649375 40.05125 -2.29875 39.1025 -1.9375 38.125 C-0.93081083 34.76936943 -0.54513719 31.62710613 -0.24609375 28.1484375 C0 26 0 26 0.58984375 24.1015625 C1.14987579 21.23206499 0.49807984 18.87855795 0 16 C-0.12194601 13.20695403 -0.095353 10.42003188 -0.0625 7.625 C-0.05798828 6.88894531 -0.05347656 6.15289062 -0.04882812 5.39453125 C-0.03715142 3.59631842 -0.01922011 1.79814803 0 0 Z " fill="#7BBA8A" transform="translate(412,326)"/>
<path d="M0 0 C-8.74086532 7.98079008 -22.73081285 7.53336441 -33.8125 7.15820312 C-39.01217542 6.78215517 -44.00675433 5.45889613 -49 4 C-44.97130432 1.70293668 -42.54699243 2.02564448 -38 3 C-37.39027344 3.33902344 -36.78054688 3.67804688 -36.15234375 4.02734375 C-33.36230417 5.28817833 -31.1157358 5.3009493 -28.0625 5.3125 C-27.04285156 5.32925781 -26.02320313 5.34601563 -24.97265625 5.36328125 C-21.58771974 4.94961621 -19.84308059 3.82213538 -17 2 C-11.39735774 0.31560434 -5.82437236 -0.25323358 0 0 Z " fill="#80BC8D" transform="translate(387,394)"/>
<path d="M0 0 C1 2 1 2 0.51171875 4.12890625 C0.10373047 5.33353516 0.10373047 5.33353516 -0.3125 6.5625 C-0.57675781 7.36816406 -0.84101563 8.17382812 -1.11328125 9.00390625 C-2 11 -2 11 -4 12 C-4.35412344 13.32796291 -4.68521554 14.66216607 -5 16 C-5.66 16.99 -6.32 17.98 -7 19 C-7.66 18.67 -8.32 18.34 -9 18 C-9.020625 18.99 -9.04125 19.98 -9.0625 21 C-9.66548612 25.5548644 -12.31750776 28.07912182 -15.40625 31.30078125 C-17.08130847 32.92453662 -17.08130847 32.92453662 -18 35 C-18.66 35 -19.32 35 -20 35 C-18.53830174 29.77848899 -16.15527466 25.69561082 -13.25 21.1875 C-12.58000977 20.13127441 -12.58000977 20.13127441 -11.89648438 19.05371094 C-9.05343298 14.58752817 -6.157287 10.15884738 -3.15625 5.796875 C-1.95057655 3.92319329 -0.96007308 2.00904182 0 0 Z " fill="#A6D393" transform="translate(176,165)"/>
<path d="M0 0 C1.6156651 3.23133019 0.7953966 5.53434338 0 9 C-1.10097704 10.86794982 -2.33328316 12.52659287 -3.66796875 14.234375 C-5.00600302 16.00795708 -6.06415916 17.80034657 -7.125 19.75 C-10.44966443 25.51275168 -10.44966443 25.51275168 -14.1875 26.6875 C-14.785625 26.790625 -15.38375 26.89375 -16 27 C-14.52038829 22.92351875 -12.54139577 19.42689089 -10.25 15.75 C-9.89873047 15.18514893 -9.54746094 14.62029785 -9.18554688 14.03833008 C-6.22028846 9.29378207 -3.15277856 4.62168676 0 0 Z " fill="#70B15C" transform="translate(193,138)"/>
<path d="M0 0 C0.433125 0.474375 0.86625 0.94875 1.3125 1.4375 C3.02309613 3.23686957 3.02309613 3.23686957 6 4 C6.474375 5.11375 6.94875 6.2275 7.4375 7.375 C9.00061316 11.00142253 9.65776781 12.13228201 13 14 C14.2684375 14.495 14.2684375 14.495 15.5625 15 C18.14022697 16.05752901 19.06247925 17.06247925 21 19 C22.17720317 19.66441678 23.36603488 20.30843071 24.5625 20.9375 C27.47255528 22.5275935 28.94776006 23.72636462 30 27 C16.82356536 23.03352555 6.62704578 13.91897245 0 2 C0 1.34 0 0.68 0 0 Z " fill="#75B783" transform="translate(308,370)"/>
<path d="M0 0 C1.91731918 0.11455681 3.8338675 0.24206258 5.75 0.375 C7.35101563 0.47941406 7.35101563 0.47941406 8.984375 0.5859375 C12 1 12 1 13.86328125 2 C16.42539238 3.19908674 18.38203648 3.31565244 21.203125 3.4140625 C22.1828125 3.45273437 23.1625 3.49140625 24.171875 3.53125 C25.18765625 3.5621875 26.2034375 3.593125 27.25 3.625 C28.796875 3.68300781 28.796875 3.68300781 30.375 3.7421875 C32.9164894 3.83631674 35.45797433 3.92194979 38 4 C38 3.34 38 2.68 38 2 C41.3 1.67 44.6 1.34 48 1 C42.63832491 6.36167509 33.2205968 6.16221951 26.0625 6.3125 C18.26878743 6.27360922 5.76813416 5.76813416 0 0 Z " fill="#87C398" transform="translate(108,395)"/>
<path d="M0 0 C0.66 0.66 1.32 1.32 2 2 C0.16598192 1.7126705 -1.66718144 1.41988417 -3.5 1.125 C-5.03140625 0.88136719 -5.03140625 0.88136719 -6.59375 0.6328125 C-9.09097759 0.16887802 -11.42523043 -0.37677979 -13.86328125 -1.046875 C-18.15855627 -2.14199052 -22.2666393 -2.38462417 -26.6875 -2.375 C-27.46697998 -2.37338867 -28.24645996 -2.37177734 -29.04956055 -2.37011719 C-37.01492835 -2.20344009 -45.35897506 -1.07876772 -51.60546875 4.203125 C-54 6 -54 6 -56.3125 5.75 C-56.869375 5.5025 -57.42625 5.255 -58 5 C-42.16386258 -6.17844994 -17.70630277 -8.63261025 0 0 Z " fill="#BCE5C4" transform="translate(273,106)"/>
<path d="M0 0 C0 3.10551666 -0.5393715 4.35261084 -2 7 C-2.66 7 -3.32 7 -4 7 C-4.24621094 7.57878906 -4.49242187 8.15757812 -4.74609375 8.75390625 C-8.49432527 15.46802813 -16.83765782 21.36805498 -24 24 C-24.99 23.67 -25.98 23.34 -27 23 C-25.02 22.34 -23.04 21.68 -21 21 C-21 20.34 -21 19.68 -21 19 C-21.66 18.67 -22.32 18.34 -23 18 C-21.02 18 -19.04 18 -17 18 C-17 17.01 -17 16.02 -17 15 C-16.01 15 -15.02 15 -14 15 C-14 14.34 -14 13.68 -14 13 C-13.236875 12.814375 -12.47375 12.62875 -11.6875 12.4375 C-7.81384272 10.36554378 -7.43454737 8.07713462 -6 4 C-5.01 4 -4.02 4 -3 4 C-1.29467677 2.05990478 -1.29467677 2.05990478 0 0 Z " fill="#86C297" transform="translate(183,372)"/>
<path d="M0 0 C0.99 0 1.98 0 3 0 C1.61157359 3.82680711 -0.18346113 6.991518 -2.4375 10.375 C-4.41253555 13.41696197 -6.28327007 16.31378603 -7.625 19.6875 C-8.74388228 22.38298912 -9.86516924 24.45712581 -11.4375 26.875 C-14.13546214 31.04457786 -16.1023879 35.42028812 -18 40 C-19 38 -19 38 -18.3984375 35.86328125 C-16.71071088 31.6568481 -15.08319385 27.86078762 -12.3125 24.25 C-9.96570992 20.95180853 -9.2913087 18.98121894 -9 15 C-8.34 15 -7.68 15 -7 15 C-6.773125 14.01 -6.54625 13.02 -6.3125 12 C-5.05737697 7.61603456 -3.01661571 3.44628204 0 0 Z " fill="#A6D09E" transform="translate(204,330)"/>
<path d="M0 0 C0.96846689 2.61486062 1.04559628 3.8442127 0.25 6.5625 C-1 9 -1 9 -2.5625 10.375 C-4.33928816 12.08338977 -4.33928816 12.08338977 -4.5 15.5 C-5 19 -5 19 -6.3125 20.9375 C-8 22 -8 22 -12 22 C-12.33 22.99 -12.66 23.98 -13 25 C-13.33 24.34 -13.66 23.68 -14 23 C-13.04370117 20.98461914 -13.04370117 20.98461914 -11.54296875 18.53515625 C-11.00736328 17.65279297 -10.47175781 16.77042969 -9.91992188 15.86132812 C-9.34822266 14.93771484 -8.77652344 14.01410156 -8.1875 13.0625 C-7.62740234 12.14275391 -7.06730469 11.22300781 -6.49023438 10.27539062 C-4.3764293 6.81299306 -2.25040539 3.37560808 0 0 Z " fill="#76B35F" transform="translate(139,226)"/>
<path d="M0 0 C0.66 0.33 1.32 0.66 2 1 C1.38125 1.556875 0.7625 2.11375 0.125 2.6875 C-2.08844581 5.09624985 -2.90742142 6.95638823 -4 10 C-4.99 11.485 -4.99 11.485 -6 13 C-7.32 13 -8.64 13 -10 13 C-10.268125 13.804375 -10.53625 14.60875 -10.8125 15.4375 C-11.204375 16.283125 -11.59625 17.12875 -12 18 C-12.99 18.33 -13.98 18.66 -15 19 C-15.144375 19.78375 -15.28875 20.5675 -15.4375 21.375 C-16 24 -16 24 -17 26 C-17.66 26 -18.32 26 -19 26 C-17.51217153 19.71805757 -13.73394339 15.11655923 -10 10 C-9.34 9.01 -8.68 8.02 -8 7 C-7.34 7 -6.68 7 -6 7 C-6 6.34 -6 5.68 -6 5 C-4.04072937 3.2856382 -2.04119788 1.61594832 0 0 Z " fill="#A3D4B0" transform="translate(213,112)"/>
<path d="M0 0 C0.66 0 1.32 0 2 0 C2.33 0.99 2.66 1.98 3 3 C1.1875 5.6875 1.1875 5.6875 -1 8 C-1.66 8 -2.32 8 -3 8 C-3.3403125 8.87398438 -3.3403125 8.87398438 -3.6875 9.765625 C-5.3595162 12.61203354 -7.27976811 13.8996097 -10 15.75 C-11.3303125 16.67039062 -11.3303125 16.67039062 -12.6875 17.609375 C-15 19 -15 19 -17 19 C-16.67 17.68 -16.34 16.36 -16 15 C-14.35 15 -12.7 15 -11 15 C-11 13.68 -11 12.36 -11 11 C-9.34151823 9.98648336 -7.67334039 8.98879205 -6 8 C-4.63988391 6.01811655 -3.30208796 4.02048131 -2 2 C-1.34 2 -0.68 2 0 2 C0 1.34 0 0.68 0 0 Z " fill="#7EBA8D" transform="translate(404,375)"/>
<path d="M0 0 C7.03333376 5.12847254 10.66017851 11.56160033 15 19 C16.01472822 20.5664717 17.03443922 22.12974585 18.0625 23.6875 C18.701875 24.780625 19.34125 25.87375 20 27 C19.67 27.66 19.34 28.32 19 29 C16 25.25 16 25.25 16 23 C15.34 23 14.68 23 14 23 C11.875 21.375 11.875 21.375 10 19 C9.75 15.75 9.75 15.75 10 13 C9.01 13 8.02 13 7 13 C6.5875 11.88625 6.175 10.7725 5.75 9.625 C4.64453484 7.00679305 4.25119213 6.16506911 1.8125 4.5625 C1.214375 4.376875 0.61625 4.19125 0 4 C0 2.68 0 1.36 0 0 Z " fill="#7DBC8C" transform="translate(288,117)"/>
<path d="M0 0 C1 2 1 2 0.0625 5.125 C-0.288125 6.07375 -0.63875 7.0225 -1 8 C-1.66 8 -2.32 8 -3 8 C-2.8453125 9.0828125 -2.8453125 9.0828125 -2.6875 10.1875 C-3.1252874 14.12758664 -5.1279739 15.40817157 -8 18 C-8.33 18.66 -8.66 19.32 -9 20 C-9.66 20 -10.32 20 -11 20 C-11.33 21.98 -11.66 23.96 -12 26 C-12.99 26 -13.98 26 -15 26 C-13.65152264 22.36707683 -12.01515006 19.20068097 -9.9609375 15.91796875 C-9.38085938 14.98662109 -8.80078125 14.05527344 -8.203125 13.09570312 C-7.59984375 12.13599609 -6.9965625 11.17628906 -6.375 10.1875 C-5.45847656 8.71893555 -5.45847656 8.71893555 -4.5234375 7.22070312 C-3.01918285 4.81154528 -1.5112726 2.40475932 0 0 Z " fill="#A7D197" transform="translate(155,200)"/>
<path d="M0 0 C-0.99 0.33 -1.98 0.66 -3 1 C-3 1.66 -3 2.32 -3 3 C-4.08667969 3.34611328 -4.08667969 3.34611328 -5.1953125 3.69921875 C-11.14068407 5.70479076 -15.49138796 7.61324234 -20 12 C-20.99 11.34 -21.98 10.68 -23 10 C-19.77544035 6.2595108 -16.53784558 4.8310605 -12 3 C-10.32665961 2.01120795 -8.65848177 1.01351664 -7 0 C-3.86650268 -1.04449911 -3.01031744 -0.93423645 0 0 Z " fill="#51A064" transform="translate(234,106)"/>
<path d="M0 0 C0.53625 0.721875 1.0725 1.44375 1.625 2.1875 C3.87722335 5.11880346 3.87722335 5.11880346 7 7 C11.73574559 10.72352516 12.88101733 17.34334967 14 23 C13.67 23.66 13.34 24.32 13 25 C9.33606244 19.83384804 6.31095266 14.79256394 3.87890625 8.94140625 C2.8679957 6.70841716 1.48902494 4.93573242 0 3 C0 2.01 0 1.02 0 0 Z " fill="#77B982" transform="translate(243,258)"/>
<path d="M0 0 C1.2536419 3.51180455 0.77956527 5.33464859 -0.75 8.6875 C-1.09546875 9.47511719 -1.4409375 10.26273437 -1.796875 11.07421875 C-3 13 -3 13 -6 14 C-6.33 15.65 -6.66 17.3 -7 19 C-8.32 19.33 -9.64 19.66 -11 20 C-9.56952311 14.89115395 -7.28610306 10.98255739 -4.375 6.625 C-3.95476562 5.98433594 -3.53453125 5.34367187 -3.1015625 4.68359375 C-2.07370232 3.11844302 -1.03768114 1.55865686 0 0 Z " fill="#9BC98A" transform="translate(124,251)"/>
<path d="M0 0 C0.33 0 0.66 0 1 0 C1 1.98 1 3.96 1 6 C1.66 6 2.32 6 3 6 C3 6.66 3 7.32 3 8 C2.01 8.33 1.02 8.66 0 9 C-0.33 9.66 -0.66 10.32 -1 11 C-1.66 11 -2.32 11 -3 11 C-3 11.66 -3 12.32 -3 13 C-3.99 13 -4.98 13 -6 13 C-6 13.66 -6 14.32 -6 15 C-6.66 15 -7.32 15 -8 15 C-6.53025751 9.26800429 -3.55513098 4.66416601 0 0 Z " fill="#8AC682" transform="translate(99,293)"/>
<path d="M0 0 C4.23431576 3.60700972 6.4692099 8.14586161 9 13 C9.99 13 10.98 13 12 13 C12 14.32 12 15.64 12 17 C12.66 17.33 13.32 17.66 14 18 C14.5625 20.3125 14.5625 20.3125 15 23 C15.32483418 24.33542939 15.6550855 25.66961551 16 27 C12.96059842 24.19540198 11.01775149 21.54287436 9.125 17.875 C6.62616678 13.12594197 3.94200459 8.54808428 1.1015625 3.99609375 C0 2 0 2 0 0 Z " fill="#A9D7B5" transform="translate(292,343)"/>
<path d="M0 0 C3.24822479 2.77687356 5.12183056 6.39061382 7.1875 10.0625 C7.55552734 10.69994141 7.92355469 11.33738281 8.30273438 11.99414062 C11 16.74312964 11 16.74312964 11 19 C10.34 19 9.68 19 9 19 C6 14.61538462 6 14.61538462 6 12 C5.01 12.33 4.02 12.66 3 13 C2.49242138 11.58603098 1.99425075 10.16868271 1.5 8.75 C1.08234375 7.56664062 1.08234375 7.56664062 0.65625 6.359375 C0 4 0 4 0 0 Z " fill="#80BC89" transform="translate(377,265)"/>
<path d="M0 0 C3.9792022 3.48636523 6.2382646 7.55151436 8.75 12.125 C9.16121094 12.85332031 9.57242187 13.58164063 9.99609375 14.33203125 C13 19.7310787 13 19.7310787 13 22 C11 22 11 22 9.5625 20.9375 C7.37316088 18.22271949 6.32944577 15.21282728 5 12 C4.443125 11.071875 3.88625 10.14375 3.3125 9.1875 C2 7 2 7 2 5 C1.34 5 0.68 5 0 5 C0 3.35 0 1.7 0 0 Z " fill="#A1D1AB" transform="translate(353,224)"/>
<path d="M0 0 C0.33 1.32 0.66 2.64 1 4 C1.99 4 2.98 4 4 4 C3.57952778 8.48503697 1.61514521 11.39365124 -0.7890625 15.0625 C-2.17556279 17.28090047 -3.15036769 19.52834236 -4 22 C-4.33 22 -4.66 22 -5 22 C-5.17942163 18.05272412 -5.09350689 15.4019487 -3 12 C-2.34 12 -1.68 12 -1 12 C-0.67 8.04 -0.34 4.08 0 0 Z " fill="#6DB663" transform="translate(191,343)"/>
<path d="M0 0 C0.8212254 2.29943113 1.13426962 3.58376417 0.375 5.9375 C-1.43053569 8.64580354 -3.6738368 10.73199088 -6 13 C-6.99 14.485 -6.99 14.485 -8 16 C-8.66 16 -9.32 16 -10 16 C-8.53291432 10.27836585 -5.58811438 5.63139763 -2 1 C-1.34 0.67 -0.68 0.34 0 0 Z " fill="#A1CE92" transform="translate(166,184)"/>
<path d="M0 0 C0.33 0 0.66 0 1 0 C0.70544888 7.65832917 -2.37172342 13.34261178 -6 20 C-7.32966136 17.34067728 -6.58399212 15.82263869 -5.7421875 13.078125 C-4.13945943 8.59048641 -2.12995351 4.25990702 0 0 Z " fill="#89C197" transform="translate(414,356)"/>
<path d="M0 0 C0.33 0.66 0.66 1.32 1 2 C-0.36078271 4.62710761 -1.76905403 7.10906702 -3.3125 9.625 C-3.72951172 10.33140625 -4.14652344 11.0378125 -4.57617188 11.765625 C-5.65567248 13.54929745 -6.82186531 15.27988151 -8 17 C-8.66 17 -9.32 17 -10 17 C-9.04790419 10.01796407 -9.04790419 10.01796407 -7 7 C-6.360625 6.690625 -5.72125 6.38125 -5.0625 6.0625 C-2.28055457 4.6293766 -1.43061498 2.71816847 0 0 Z " fill="#A5CE95" transform="translate(227,297)"/>
<path d="M0 0 C3.14643589 2.89390199 5.17595619 5.73546556 7.1875 9.5 C7.69667969 10.4384375 8.20585937 11.376875 8.73046875 12.34375 C9.81012614 14.60272546 10.5217064 16.55666885 11 19 C10.34 19 9.68 19 9 19 C8.34 18.34 7.68 17.68 7 17 C6.67 17 6.34 17 6 17 C5.7525 16.195625 5.505 15.39125 5.25 14.5625 C3.96803665 10.90890445 2.43858811 7.45945186 0.8046875 3.953125 C0 2 0 2 0 0 Z " fill="#9ED1A9" transform="translate(366,246)"/>
<path d="M0 0 C4.36616332 2.23159459 6.25619357 3.77660998 7.8125 8.5 C8.23429733 9.99290691 8.63123796 11.49311627 9 13 C9.18949219 13.7528125 9.37898438 14.505625 9.57421875 15.28125 C9.71472656 15.8484375 9.85523438 16.415625 10 17 C6.81321628 14.07647233 4.78276705 11.18387159 2.75 7.375 C1.96882813 5.93253906 1.96882813 5.93253906 1.171875 4.4609375 C0 2 0 2 0 0 Z " fill="#9DD0AA" transform="translate(281,324)"/>
<path d="M0 0 C0.33 1.32 0.66 2.64 1 4 C0.34 4 -0.32 4 -1 4 C-0.938125 5.423125 -0.938125 5.423125 -0.875 6.875 C-1 10 -1 10 -3 12 C-3.99 12 -4.98 12 -6 12 C-6.66 13.65 -7.32 15.3 -8 17 C-8.33 16.34 -8.66 15.68 -9 15 C-7.59104764 12.38211357 -6.13756909 9.88954328 -4.5625 7.375 C-3.9118457 6.31539063 -3.9118457 6.31539063 -3.24804688 5.234375 C-2.17251868 3.48516432 -1.08716275 1.74200346 0 0 Z " fill="#AFD7A1" transform="translate(109,276)"/>
<path d="M0 0 C-1.37287342 3.69876091 -3.06355453 6.9514476 -5.125 10.3125 C-5.66382813 11.19550781 -6.20265625 12.07851563 -6.7578125 12.98828125 C-7.37269531 13.98408203 -7.37269531 13.98408203 -8 15 C-8.58203125 13.15234375 -8.58203125 13.15234375 -9 11 C-7.6875 8.5625 -7.6875 8.5625 -6 6 C-5.4740625 4.63875 -5.4740625 4.63875 -4.9375 3.25 C-3.76509897 0.43623752 -3.02402961 0 0 0 Z " fill="#7CB467" transform="translate(216,315)"/>
<path d="M0 0 C2.63520741 2.40502363 4.40302943 5.0185849 6.25 8.0625 C7.06210937 9.37927734 7.06210937 9.37927734 7.890625 10.72265625 C8.25671875 11.47417969 8.6228125 12.22570312 9 13 C8.67 13.66 8.34 14.32 8 15 C2.4601682 9.4601682 0.74647152 7.71353904 0 0 Z " fill="#81BF90" transform="translate(344,208)"/>
<path d="M0 0 C0.433125 0.474375 0.86625 0.94875 1.3125 1.4375 C3.02309613 3.23686957 3.02309613 3.23686957 6 4 C6.69839276 5.6628399 7.39092569 7.3286538 8.0390625 9.01171875 C9.72300475 12.49597324 12.36894059 15.19864548 15 18 C11.46600105 16.52157091 9.44254483 14.55937221 6.9375 11.6875 C6.26589844 10.92824219 5.59429687 10.16898437 4.90234375 9.38671875 C0 3.23613963 0 3.23613963 0 0 Z " fill="#A4D5AF" transform="translate(308,370)"/>
<path d="M0 0 C1.70840281 1.63412443 2.93453047 2.86906094 4 5 C5.32 5 6.64 5 8 5 C9.17076699 8.98060777 10.25749403 12.91621717 11 17 C10.443125 16.2265625 10.443125 16.2265625 9.875 15.4375 C8.12310571 13.09158847 8.12310571 13.09158847 6.53515625 11.38671875 C3.23995515 7.75313514 1.19133643 4.88447935 0 0 Z " fill="#80BB8C" transform="translate(257,283)"/>
<path d="M0 0 C1.91731918 0.11455681 3.8338675 0.24206258 5.75 0.375 C7.35101563 0.47941406 7.35101563 0.47941406 8.984375 0.5859375 C11.80206432 0.9728223 13.5830366 1.55686166 16 3 C16 3.66 16 4.32 16 5 C10.13190493 4.47606294 5.45126259 3.23891142 0 1 C0 0.67 0 0.34 0 0 Z " fill="#85BF91" transform="translate(108,395)"/>
<path d="M0 0 C1.89453125 0.2265625 1.89453125 0.2265625 4 1 C5.01171875 2.9609375 5.01171875 2.9609375 5.6875 5.375 C6.03361328 6.56222656 6.03361328 6.56222656 6.38671875 7.7734375 C6.58910156 8.50820313 6.79148437 9.24296875 7 10 C7.33 10.99 7.66 11.98 8 13 C4.35812142 11.78604047 4.08254007 10.90993923 2.3125 7.625 C1.87550781 6.83351563 1.43851562 6.04203125 0.98828125 5.2265625 C0 3 0 3 0 0 Z " fill="#559E67" transform="translate(305,361)"/>
<path d="M0 0 C5.35000149 4.90283719 9.16648596 12.03264666 11 19 C10.01 18.34 9.02 17.68 8 17 C8 16.01 8 15.02 8 14 C7.34 14 6.68 14 6 14 C2.86190958 11.63634834 2.23256197 9.03656036 1.3125 5.3125 C1.06113281 4.31863281 0.80976563 3.32476562 0.55078125 2.30078125 C0.36902344 1.54152344 0.18726563 0.78226563 0 0 Z " fill="#A5D8B1" transform="translate(310,150)"/>
<path d="M0 0 C0.66 0.33 1.32 0.66 2 1 C1.38125 1.556875 0.7625 2.11375 0.125 2.6875 C-2.08844581 5.09624985 -2.90742142 6.95638823 -4 10 C-4.99 11.485 -4.99 11.485 -6 13 C-7.32 12.67 -8.64 12.34 -10 12 C-9.2884375 11.1028125 -9.2884375 11.1028125 -8.5625 10.1875 C-6.83534256 7.99617076 -6.83534256 7.99617076 -6 5 C-4.12382302 3.15500602 -2.07262391 1.6316401 0 0 Z " fill="#7EBF91" transform="translate(213,112)"/>
<path d="M0 0 C5.02709507 1.57096721 9.02866469 4.61993049 13 8 C13 8.33 13 8.66 13 9 C10.69 9 8.38 9 6 9 C6 7.35 6 5.7 6 4 C4.68 4 3.36 4 2 4 C1.34 2.68 0.68 1.36 0 0 Z " fill="#8BC598" transform="translate(275,108)"/>
<path d="M0 0 C4.06051787 1.35350596 4.64228453 3.27512664 6.75 6.9375 C7.38421875 8.01902344 8.0184375 9.10054687 8.671875 10.21484375 C9.11015625 11.13394531 9.5484375 12.05304688 10 13 C9.67 13.66 9.34 14.32 9 15 C6 11.25 6 11.25 6 9 C5.34 9 4.68 9 4 9 C1.875 7.3125 1.875 7.3125 0 5 C-0.25 2.25 -0.25 2.25 0 0 Z " fill="#9FD3A9" transform="translate(298,131)"/>
<path d="M0 0 C7 8.44827586 7 8.44827586 7 12 C5.35 11.67 3.7 11.34 2 11 C0.80712589 7.12315913 0 4.08378077 0 0 Z " fill="#8FC698" transform="translate(402,308)"/>
<path d="M0 0 C1.11353866 3.74626219 0.80746732 5.47543872 -1 9 C-2.5 10.8125 -2.5 10.8125 -4 12 C-4.66 12 -5.32 12 -6 12 C-6 12.99 -6 13.98 -6 15 C-6.66 15 -7.32 15 -8 15 C-6.62712658 11.30123909 -4.93644547 8.0485524 -2.875 4.6875 C-2.33617187 3.80449219 -1.79734375 2.92148438 -1.2421875 2.01171875 C-0.83226562 1.34785156 -0.42234375 0.68398437 0 0 Z " fill="#B6D9A6" transform="translate(139,226)"/>
<path d="M0 0 C4.3590077 3.48720616 4.94552183 6.72760915 6 12 C6.99 12 7.98 12 9 12 C9.33 13.32 9.66 14.64 10 16 C6.19872403 14.52907147 4.7904198 12.59783572 2.75 9.125 C2.22921875 8.26132812 1.7084375 7.39765625 1.171875 6.5078125 C0 4 0 4 0 0 Z " fill="#559F65" transform="translate(276,311)"/>
<path d="M0 0 C3.60001861 1.86207859 4.53489703 3.98986608 5.75 7.6875 C6.17985483 9.12111159 6.60082968 10.55754362 7 12 C6.01 12.33 5.02 12.66 4 13 C4 11.35 4 9.7 4 8 C2.68 7.34 1.36 6.68 0 6 C0 4.02 0 2.04 0 0 Z " fill="#64A973" transform="translate(306,145)"/>
<path d="M0 0 C0.66 0 1.32 0 2 0 C2.33 0.99 2.66 1.98 3 3 C0.84656811 6.23014784 -0.27059611 7.75686537 -4 9 C-4.33 8.01 -4.66 7.02 -5 6 C-3.6875 3.8125 -3.6875 3.8125 -2 2 C-1.34 2 -0.68 2 0 2 C0 1.34 0 0.68 0 0 Z " fill="#6DB180" transform="translate(404,375)"/>
<path d="M0 0 C0.33 0 0.66 0 1 0 C1.3152595 5.98993047 0.68219822 9.63560356 -2 15 C-2.33 15 -2.66 15 -3 15 C-3.3152595 9.01006953 -2.68219822 5.36439644 0 0 Z " fill="#8BC395" transform="translate(81,322)"/>
<path d="M0 0 C7 8.44827586 7 8.44827586 7 12 C6.34 12 5.68 12 5 12 C4.34 11.01 3.68 10.02 3 9 C2.01 9.495 2.01 9.495 1 10 C0.67 6.7 0.34 3.4 0 0 Z " fill="#91C89B" transform="translate(331,186)"/>
<path d="M0 0 C7.54290017 -0.4946164 13.058915 1.09382609 20 4 C16.85178538 5.04940487 16.0650509 4.98606526 12.98828125 4.22265625 C11.85229492 3.94711914 11.85229492 3.94711914 10.69335938 3.66601562 C9.51483398 3.36727539 9.51483398 3.36727539 8.3125 3.0625 C7.11657227 2.76956055 7.11657227 2.76956055 5.89648438 2.47070312 C3.92919611 1.98771618 1.96434946 1.4948037 0 1 C0 0.67 0 0.34 0 0 Z " fill="#A3D2AB" transform="translate(255,103)"/>
<path d="M0 0 C0 3.09875672 -0.58261252 5.24421515 -1.5 8.1875 C-1.7784375 9.08855469 -2.056875 9.98960937 -2.34375 10.91796875 C-2.66859375 11.94857422 -2.66859375 11.94857422 -3 13 C-4.65 13.33 -6.3 13.66 -8 14 C-6.6744419 10.37723685 -5.05653045 7.36494652 -2.875 4.1875 C-2.33617187 3.39730469 -1.79734375 2.60710937 -1.2421875 1.79296875 C-0.83226562 1.20128906 -0.42234375 0.60960937 0 0 Z " fill="#AED7A3" transform="translate(185,151)"/>
<path d="M0 0 C1.38308641 2.76617283 0.90563946 4.07408791 0 7 C-2 9.1875 -2 9.1875 -4 11 C-4.33 11.66 -4.66 12.32 -5 13 C-5.66 13 -6.32 13 -7 13 C-5.58832253 7.73829306 -3.25149768 4.27828642 0 0 Z " fill="#ACD4A1" transform="translate(193,138)"/>
<path d="M0 0 C1.2065625 0.0309375 1.2065625 0.0309375 2.4375 0.0625 C-2.27409603 3.79928306 -5.58153338 4.17534843 -11.5625 4.0625 C-11.5625 4.7225 -11.5625 5.3825 -11.5625 6.0625 C-12.2225 6.0625 -12.8825 6.0625 -13.5625 6.0625 C-13.5625 5.0725 -13.5625 4.0825 -13.5625 3.0625 C-12.85222656 2.92972656 -12.14195312 2.79695313 -11.41015625 2.66015625 C-10.49105469 2.48355469 -9.57195312 2.30695313 -8.625 2.125 C-7.25021484 1.86396484 -7.25021484 1.86396484 -5.84765625 1.59765625 C-3.05499644 0.94364874 -2.95318379 0.07202887 0 0 Z " fill="#4A9E60" transform="translate(157.5625,392.9375)"/>
<path d="M0 0 C0.625 1.8125 0.625 1.8125 1 4 C0.01 5.485 0.01 5.485 -1 7 C-1.66 7 -2.32 7 -3 7 C-3.33 8.98 -3.66 10.96 -4 13 C-4.99 13 -5.98 13 -7 13 C-5.35821735 8.22390502 -2.73453298 4.20617096 0 0 Z " fill="#B5DBA9" transform="translate(147,213)"/>
<path d="M0 0 C0.66 0.66 1.32 1.32 2 2 C0.39620659 2.05416188 -1.20811406 2.09286638 -2.8125 2.125 C-3.70582031 2.14820313 -4.59914063 2.17140625 -5.51953125 2.1953125 C-8 2 -8 2 -11 0 C-7.17403486 -1.37734745 -3.92500718 -0.7995385 0 0 Z " fill="#6AB07B" transform="translate(349,397)"/>
<path d="M0 0 C3.28465896 2.79196011 5.01321958 6.23196817 7 10 C7 10.66 7 11.32 7 12 C6.34 12 5.68 12 5 12 C3.7109375 10.390625 3.7109375 10.390625 2.375 8.25 C1.92898438 7.55390625 1.48296875 6.8578125 1.0234375 6.140625 C0 4 0 4 0 0 Z " fill="#A7D6B1" transform="translate(381,272)"/>
<path d="M0 0 C0.33 1.32 0.66 2.64 1 4 C0.01 4.33 -0.98 4.66 -2 5 C-1.938125 5.78375 -1.87625 6.5675 -1.8125 7.375 C-1.874375 8.24125 -1.93625 9.1075 -2 10 C-2.99 10.66 -3.98 11.32 -5 12 C-4.45119974 8.06693147 -3.74199701 4.58646443 -2 1 C-1.34 0.67 -0.68 0.34 0 0 Z " fill="#469C5A" transform="translate(200,130)"/>
<path d="M0 0 C2.97 0.99 5.94 1.98 9 3 C9 3.66 9 4.32 9 5 C9.66 5 10.32 5 11 5 C11 5.66 11 6.32 11 7 C6.00724943 5.72278474 3.42388092 3.82669043 0 0 Z " fill="#88BD93" transform="translate(97,388)"/>
<path d="M0 0 C3.37503669 1.1858237 5.64722731 2.27573689 8 5 C7.34 5 6.68 5 6 5 C6 5.66 6 6.32 6 7 C3.00675737 5.9024777 2.15389099 5.32317108 0.75 2.375 C0.5025 1.59125 0.255 0.8075 0 0 Z " fill="#5FAA72" transform="translate(321,384)"/>
<path d="M0 0 C2.61500768 2.36595933 4.38999603 4.86049226 6 8 C5.67 8.66 5.34 9.32 5 10 C3.02 8.35 1.04 6.7 -1 5 C-0.67 3.35 -0.34 1.7 0 0 Z " fill="#99CCA5" transform="translate(388,284)"/>
<path d="M0 0 C0.99 0 1.98 0 3 0 C1.68775452 3.93673644 0.08089673 6.22719294 -3 9 C-2.5020163 5.26512223 -2.12508244 3.18762365 0 0 Z " fill="#78B364" transform="translate(204,330)"/>
<path d="M0 0 C1.34780093 2.69560185 0.67336458 3.742617 -0.25 6.5625 C-0.50265625 7.36816406 -0.7553125 8.17382812 -1.015625 9.00390625 C-1.34046875 9.66261719 -1.6653125 10.32132813 -2 11 C-2.99 11.33 -3.98 11.66 -5 12 C-4.42365861 7.24518354 -2.44931479 4.02951788 0 0 Z " fill="#ABD3A0" transform="translate(176,165)"/>
<path d="M0 0 C3.48331435 3.01887244 4.79157144 5.56909529 6 10 C5.34 10 4.68 10 4 10 C2.98133771 8.34467377 1.98189187 6.67739862 1 5 C0.34 4.67 -0.32 4.34 -1 4 C-0.67 2.68 -0.34 1.36 0 0 Z " fill="#A0CFA8" transform="translate(321,169)"/>
<path d="M0 0 C0.33 0 0.66 0 1 0 C1.08131463 1.43655854 1.13933559 2.8744483 1.1875 4.3125 C1.23970703 5.51326172 1.23970703 5.51326172 1.29296875 6.73828125 C0.93801608 9.47851584 0.10633718 10.29171079 -2 12 C-2.17835515 7.45194365 -1.99785435 4.1205746 0 0 Z " fill="#579E67" transform="translate(414,347)"/>
<path d="M0 0 C3.43774463 1.14591488 4.17413159 1.95688598 6 5 C6 6.32 6 7.64 6 9 C6.66 9 7.32 9 8 9 C8 9.66 8 10.32 8 11 C5 10 5 10 3.61328125 7.71484375 C3.18402344 6.79832031 2.75476563 5.88179688 2.3125 4.9375 C1.87550781 4.01839844 1.43851562 3.09929687 0.98828125 2.15234375 C0.49908203 1.08693359 0.49908203 1.08693359 0 0 Z " fill="#539F66" transform="translate(268,300)"/>
<path d="M0 0 C3.27742098 3.10026309 5.93104837 5.97098894 8 10 C8 10.66 8 11.32 8 12 C5 11 5 11 3.8671875 9.2578125 C3.53976563 8.55398437 3.21234375 7.85015625 2.875 7.125 C2.37613281 6.07699219 2.37613281 6.07699219 1.8671875 5.0078125 C1 3 1 3 0 0 Z " fill="#54AB50" transform="translate(200,188)"/>
<path d="M0 0 C8.57142857 0.85714286 8.57142857 0.85714286 12 3 C12 3.33 12 3.66 12 4 C3.42857143 3.14285714 3.42857143 3.14285714 0 1 C0 0.67 0 0.34 0 0 Z " fill="#529F61" transform="translate(264,106)"/>
<path d="M0 0 C0.33 1.32 0.66 2.64 1 4 C0.01 4.66 -0.98 5.32 -2 6 C-3.20450304 8.55183404 -3.20450304 8.55183404 -4 11 C-4.66 11 -5.32 11 -6 11 C-4.74194623 6.49197399 -3.09592835 3.5087188 0 0 Z " fill="#A0D2A9" transform="translate(90,308)"/>
<path d="M0 0 C0.33 1.32 0.66 2.64 1 4 C-1.97 6.475 -1.97 6.475 -5 9 C-3.375 2.25 -3.375 2.25 0 0 Z " fill="#7CB469" transform="translate(180,163)"/>
<path d="M0 0 C1.98 0 3.96 0 6 0 C6 0.66 6 1.32 6 2 C0.82421875 5.22265625 0.82421875 5.22265625 -1 6 C-1.99 5.67 -2.98 5.34 -4 5 C-2.02 4.34 -0.04 3.68 2 3 C2 2.34 2 1.68 2 1 C1.34 0.67 0.68 0.34 0 0 Z " fill="#80BF8F" transform="translate(160,390)"/>
<path d="M0 0 C0.66 0 1.32 0 2 0 C1.39009109 3.55780196 0.4216319 6.6828589 -1 10 C-1.33 10 -1.66 10 -2 10 C-2.17942163 6.05272412 -2.09350689 3.4019487 0 0 Z " fill="#58A468" transform="translate(188,355)"/>
<path d="M0 0 C0.33 0.99 0.66 1.98 1 3 C-0.65 4.65 -2.3 6.3 -4 8 C-4 4.87099787 -3.57548683 3.62581138 -2 1 C-1.34 0.67 -0.68 0.34 0 0 Z " fill="#78B264" transform="translate(105,287)"/>
<path d="M0 0 C0.625 1.8125 0.625 1.8125 1 4 C0.01 5.485 0.01 5.485 -1 7 C-1.66 7 -2.32 7 -3 7 C-3 7.99 -3 8.98 -3 10 C-3.66 10 -4.32 10 -5 10 C-3.66511872 6.40608886 -2.03977277 3.24509304 0 0 Z " fill="#BEDFB3" transform="translate(124,251)"/>
<path d="M0 0 C-1.26607607 0.53229326 -2.53810412 1.05044544 -3.8125 1.5625 C-4.52019531 1.85253906 -5.22789062 2.14257812 -5.95703125 2.44140625 C-8 3 -8 3 -11 2 C-10.67 1.34 -10.34 0.68 -10 0 C-6.18015204 -0.77811718 -3.73159669 -1.24386556 0 0 Z " fill="#9DCEA6" transform="translate(156,397)"/>
<path d="M0 0 C0.66 0 1.32 0 2 0 C3.2890625 1.53125 3.2890625 1.53125 4.625 3.5 C5.07101562 4.1496875 5.51703125 4.799375 5.9765625 5.46875 C6.31429688 5.9740625 6.65203125 6.479375 7 7 C6.67 7.66 6.34 8.32 6 9 C4.99406757 7.8803014 3.9954151 6.7540588 3 5.625 C2.443125 4.99851562 1.88625 4.37203125 1.3125 3.7265625 C0 2 0 2 0 0 Z " fill="#4A9B60" transform="translate(314,376)"/>
<path d="M0 0 C0.33 0 0.66 0 1 0 C1 1.98 1 3.96 1 6 C-0.65 6.66 -2.3 7.32 -4 8 C-2.87548273 5.0280615 -1.77706209 2.66559313 0 0 Z " fill="#AAD599" transform="translate(99,293)"/>
<path d="M0 0 C0.625 1.8125 0.625 1.8125 1 4 C0.01 5.485 0.01 5.485 -1 7 C-1.66 7 -2.32 7 -3 7 C-3.33 7.99 -3.66 8.98 -4 10 C-4.33 9.34 -4.66 8.68 -5 8 C-4.00390625 6.0546875 -4.00390625 6.0546875 -2.5625 3.875 C-2.08941406 3.15054688 -1.61632812 2.42609375 -1.12890625 1.6796875 C-0.75636719 1.12539062 -0.38382813 0.57109375 0 0 Z " fill="#BDE0B3" transform="translate(130,241)"/>
<path d="M0 0 C2.61500768 2.36595933 4.38999603 4.86049226 6 8 C5.67 8.66 5.34 9.32 5 10 C0 4.5 0 4.5 0 0 Z " fill="#ACDBB9" transform="translate(344,208)"/>
<path d="M0 0 C2.61500768 2.36595933 4.38999603 4.86049226 6 8 C5.67 8.66 5.34 9.32 5 10 C4.67 9.01 4.34 8.02 4 7 C3.34 7 2.68 7 2 7 C0 4 0 4 0 0 Z " fill="#A9D9B2" transform="translate(338,198)"/>
<path d="M0 0 C2.31 1.98 4.62 3.96 7 6 C6.67 6.66 6.34 7.32 6 8 C3 6.25 3 6.25 0 4 C0 2.68 0 1.36 0 0 Z " fill="#93C9A3" transform="translate(288,117)"/>
<path d="M0 0 C1.9375 0.3125 1.9375 0.3125 4 1 C4.33 1.99 4.66 2.98 5 4 C4.34 4.66 3.68 5.32 3 6 C3 5.34 3 4.68 3 4 C2.01 3.67 1.02 3.34 0 3 C0 2.01 0 1.02 0 0 Z " fill="#499B5D" transform="translate(305,361)"/>
<path d="M0 0 C0.66 0 1.32 0 2 0 C0.8141763 3.37503669 -0.27573689 5.64722731 -3 8 C-2.25 2.25 -2.25 2.25 0 0 Z " fill="#7AB265" transform="translate(226,295)"/>
<path d="M0 0 C2.0625 1.75 2.0625 1.75 4 4 C3.75 6.25 3.75 6.25 3 8 C2.67 7.01 2.34 6.02 2 5 C1.34 5 0.68 5 0 5 C0 3.35 0 1.7 0 0 Z " fill="#8EC89E" transform="translate(353,224)"/>
</svg>
