<svg width="666" height="666" viewBox="0 0 666 666" fill="none" xmlns="http://www.w3.org/2000/svg">
<circle cx="333" cy="333" r="333" fill="black"/>
<path d="M491.01 334.466C476.506 316.451 454.761 295.948 435.013 288.744C430.878 249.745 401.573 217.478 362.438 206.445L418.469 154.914C423.839 149.976 423.9 141.904 418.606 136.885C413.31 131.866 404.667 131.8 399.297 136.739L333.695 197.072L269.572 136.287C264.276 131.268 255.633 131.203 250.263 136.141C244.894 141.079 244.833 149.152 250.127 154.169L304.813 206.008C265.556 216.44 235.788 248.207 231.02 287.083C211.075 293.872 188.85 314.173 173.988 332.071C158.351 350.901 132.072 389.154 131.735 433.778C131.492 465.925 159.306 492.29 193.734 492.55C224.59 492.783 250.438 471.96 255.641 444.492C271.394 461.03 293.184 472.441 317.774 475.703L317.442 519.649C317.388 526.689 323.456 532.443 330.998 532.5C338.54 532.557 344.694 526.895 344.747 519.855L345.079 475.91C369.713 473.019 391.673 461.939 407.673 445.641C412.462 473.186 437.988 494.395 468.847 494.629C503.273 494.889 531.48 468.948 531.723 436.801C532.057 392.175 506.358 353.531 491.01 334.466ZM407.669 327.413L257.43 326.278L257.55 310.329L407.789 311.464L407.669 327.413ZM257.237 351.774L407.476 352.909L407.355 368.86L257.117 367.724L257.237 351.774ZM333.462 227.851C370.311 228.13 400.851 253.217 407.048 285.961L259.006 284.842C265.697 252.196 296.613 227.573 333.462 227.851ZM229.305 434.514C229.169 452.602 213.299 467.198 193.926 467.052C174.554 466.905 158.903 452.071 159.04 433.983C159.441 380.922 204.805 332.484 230.2 316.106L229.715 380.266L229.305 434.514ZM331.611 451.184C294.852 450.906 264.385 425.887 258.189 393.23L405.898 394.346C399.207 426.906 368.369 451.462 331.611 451.184ZM469.037 469.131C449.665 468.984 434.018 454.15 434.154 436.062L434.564 381.814L435.049 317.654C460.192 334.414 504.817 383.531 504.416 436.593C504.278 454.681 488.408 469.277 469.037 469.131Z" fill="white" stroke="black" stroke-width="0.000866679"/>
</svg>
