<svg width="300" height="112" viewBox="0 0 300 112" fill="none" xmlns="http://www.w3.org/2000/svg">
<path d="M35.2 53L42.4 80L48.7 53H60.4L49 95H37.6L30.4 68.9L23.2 95H11.8L0.4 53H12.1L18.4 80L25.6 53H35.2ZM75.1281 70.1C73.5281 70.1 72.7281 70.9 72.7281 72.5V75.8H82.9281V72.5C82.9281 70.9 82.1281 70.1 80.5281 70.1H75.1281ZM92.2281 94.4C84.5081 95.2 77.5081 95.6 71.2281 95.6C68.5081 95.6 66.3281 94.78 64.6881 93.14C63.0481 91.5 62.2281 89.32 62.2281 86.6V72.2C62.2281 69.2 63.0681 66.86 64.7481 65.18C66.4681 63.46 68.8281 62.6 71.8281 62.6H83.8281C86.8281 62.6 89.1681 63.46 90.8481 65.18C92.5681 66.86 93.4281 69.2 93.4281 72.2V83.3H72.7281V85.7C72.7281 86.3 72.9281 86.8 73.3281 87.2C73.7281 87.6 74.2281 87.8 74.8281 87.8C78.7881 87.8 84.5881 87.5 92.2281 86.9V94.4ZM116.505 71.3C114.385 71.3 111.985 71.7 109.305 72.5V95H98.8047V63.2H108.105L108.705 66.2C110.585 64.96 112.505 64.06 114.465 63.5C116.465 62.9 118.145 62.6 119.505 62.6H122.205C124.925 62.6 127.105 63.42 128.745 65.06C130.385 66.7 131.205 68.88 131.205 71.6V95H120.705V73.4C120.705 72.8 120.505 72.3 120.105 71.9C119.705 71.5 119.205 71.3 118.605 71.3H116.505ZM157.298 92.6C153.418 93.4 150.018 93.8 147.098 93.8H144.998C142.278 93.8 140.098 92.98 138.458 91.34C136.818 89.7 135.998 87.52 135.998 84.8V72.8C135.998 69.8 136.838 67.46 138.518 65.78C140.238 64.06 142.598 63.2 145.598 63.2H167.798V96.8C167.798 99.52 166.978 101.7 165.338 103.34C163.698 104.98 161.518 105.8 158.798 105.8C152.518 105.8 145.518 105.4 137.798 104.6V96.8C145.438 97.4 151.238 97.7 155.198 97.7C155.798 97.7 156.298 97.5 156.698 97.1C157.098 96.7 157.298 96.2 157.298 95.6V92.6ZM150.098 85.7C152.618 85.7 155.018 85.5 157.298 85.1V71.3H148.898C147.298 71.3 146.498 72.1 146.498 73.7V83.6C146.498 84.2 146.698 84.7 147.098 85.1C147.498 85.5 147.998 85.7 148.598 85.7H150.098ZM187.005 64.4V95H176.505V72.5H172.005V64.4H187.005ZM176.505 52.4H187.005V60.8H176.505V52.4ZM210.723 71.3C208.603 71.3 206.203 71.7 203.523 72.5V95H193.023V63.2H202.323L202.923 66.2C204.803 64.96 206.723 64.06 208.683 63.5C210.683 62.9 212.363 62.6 213.723 62.6H216.423C219.143 62.6 221.323 63.42 222.963 65.06C224.603 66.7 225.423 68.88 225.423 71.6V95H214.923V73.4C214.923 72.8 214.723 72.3 214.323 71.9C213.923 71.5 213.423 71.3 212.823 71.3H210.723ZM243.116 70.1C241.516 70.1 240.716 70.9 240.716 72.5V75.8H250.916V72.5C250.916 70.9 250.116 70.1 248.516 70.1H243.116ZM260.216 94.4C252.496 95.2 245.496 95.6 239.216 95.6C236.496 95.6 234.316 94.78 232.676 93.14C231.036 91.5 230.216 89.32 230.216 86.6V72.2C230.216 69.2 231.056 66.86 232.736 65.18C234.456 63.46 236.816 62.6 239.816 62.6H251.816C254.816 62.6 257.156 63.46 258.836 65.18C260.556 66.86 261.416 69.2 261.416 72.2V83.3H240.716V85.7C240.716 86.3 240.916 86.8 241.316 87.2C241.716 87.6 242.216 87.8 242.816 87.8C246.776 87.8 252.576 87.5 260.216 86.9V94.4Z" fill="#25D366"/>
<path d="M280 74.8333C278.453 74.8333 276.969 74.2187 275.875 73.1248C274.781 72.0308 274.167 70.5471 274.167 69C274.167 67.4529 274.781 65.9692 275.875 64.8752C276.969 63.7812 278.453 63.1667 280 63.1667C281.547 63.1667 283.031 63.7812 284.125 64.8752C285.219 65.9692 285.833 67.4529 285.833 69C285.833 70.5471 285.219 72.0308 284.125 73.1248C283.031 74.2187 281.547 74.8333 280 74.8333ZM292.383 70.6167C292.45 70.0833 292.5 69.55 292.5 69C292.5 68.45 292.45 67.9 292.383 67.3333L295.9 64.6167C296.217 64.3667 296.3 63.9167 296.1 63.55L292.767 57.7833C292.567 57.4167 292.117 57.2667 291.75 57.4167L287.6 59.0833C286.733 58.4333 285.833 57.8667 284.783 57.45L284.167 53.0333C284.133 52.837 284.031 52.659 283.878 52.5309C283.726 52.4028 283.533 52.3328 283.333 52.3333H276.667C276.25 52.3333 275.9 52.6333 275.833 53.0333L275.217 57.45C274.167 57.8667 273.267 58.4333 272.4 59.0833L268.25 57.4167C267.883 57.2667 267.433 57.4167 267.233 57.7833L263.9 63.55C263.683 63.9167 263.783 64.3667 264.1 64.6167L267.617 67.3333C267.55 67.9 267.5 68.45 267.5 69C267.5 69.55 267.55 70.0833 267.617 70.6167L264.1 73.3833C263.783 73.6333 263.683 74.0833 263.9 74.45L267.233 80.2167C267.433 80.5833 267.883 80.7167 268.25 80.5833L272.4 78.9C273.267 79.5667 274.167 80.1333 275.217 80.55L275.833 84.9667C275.9 85.3667 276.25 85.6667 276.667 85.6667H283.333C283.75 85.6667 284.1 85.3667 284.167 84.9667L284.783 80.55C285.833 80.1167 286.733 79.5667 287.6 78.9L291.75 80.5833C292.117 80.7167 292.567 80.5833 292.767 80.2167L296.1 74.45C296.3 74.0833 296.217 73.6333 295.9 73.3833L292.383 70.6167Z" fill="#25D366"/>
<path d="M250.007 40.5C247.144 40.5 244.398 39.3938 242.374 37.4246C240.35 35.4555 239.212 32.7848 239.212 30C239.212 27.2152 240.35 24.5445 242.374 22.5754C244.398 20.6063 247.144 19.5 250.007 19.5C252.87 19.5 255.615 20.6063 257.64 22.5754C259.664 24.5445 260.801 27.2152 260.801 30C260.801 32.7848 259.664 35.4555 257.64 37.4246C255.615 39.3938 252.87 40.5 250.007 40.5ZM272.922 32.91C273.045 31.95 273.138 30.99 273.138 30C273.138 29.01 273.045 28.02 272.922 27L279.43 22.11C280.016 21.66 280.17 20.85 279.8 20.19L273.631 9.81C273.261 9.15 272.429 8.88001 271.75 9.15001L264.071 12.15C262.467 10.98 260.801 9.96001 258.858 9.21001L257.717 1.26001C257.655 0.906657 257.465 0.586286 257.183 0.35566C256.901 0.125034 256.544 -0.000959323 256.175 5.50041e-06H243.838C243.067 5.50041e-06 242.42 0.540006 242.296 1.26001L241.155 9.21001C239.212 9.96001 237.547 10.98 235.943 12.15L228.263 9.15001C227.585 8.88001 226.752 9.15 226.382 9.81L220.214 20.19C219.813 20.85 219.998 21.66 220.584 22.11L227.092 27C226.968 28.02 226.876 29.01 226.876 30C226.876 30.99 226.968 31.95 227.092 32.91L220.584 37.89C219.998 38.34 219.813 39.15 220.214 39.81L226.382 50.19C226.752 50.85 227.585 51.09 228.263 50.85L235.943 47.82C237.547 49.02 239.212 50.04 241.155 50.79L242.296 58.74C242.42 59.46 243.067 60 243.838 60H256.175C256.946 60 257.594 59.46 257.717 58.74L258.858 50.79C260.801 50.01 262.467 49.02 264.071 47.82L271.75 50.85C272.429 51.09 273.261 50.85 273.631 50.19L279.8 39.81C280.17 39.15 280.016 38.34 279.43 37.89L272.922 32.91Z" fill="#25D366"/>
</svg>
